<svg width="38" height="40" viewBox="0 0 38 40" fill="none" xmlns="http://www.w3.org/2000/svg">
<path d="M39.3338 32.6964C34.5911 30.7767 34.4107 22.5368 34.4072 22.3289V16.8009C34.4072 11.4805 30.7798 6.90557 25.6253 4.95759C25.6142 2.22223 23.1285 0 20.0744 0C17.0201 0 14.5346 2.22236 14.5234 4.95746C9.36905 6.90544 5.74164 11.4804 5.74164 16.8008V22.3288C5.73828 22.5367 5.55772 30.7766 0.814882 32.6963C0.274595 32.915 -0.022348 33.4422 0.102569 33.9616C0.22734 34.4812 0.739917 34.8522 1.33285 34.8522H13.3564C13.6029 36.0675 14.244 37.1981 15.2246 38.1139C16.527 39.3301 18.2494 39.9999 20.0742 39.9999C21.899 39.9999 23.6214 39.3301 24.9237 38.1139C25.9044 37.198 26.5456 36.0674 26.7919 34.8522H38.8154C39.4084 34.8522 39.9209 34.4812 40.0458 33.9616C40.1709 33.4422 39.8741 32.9151 39.3338 32.6964ZM33.0862 28.749C33.5848 30.1038 34.2908 31.4643 35.2919 32.5965H4.85671C5.85766 31.4644 6.56362 30.104 7.0622 28.749H33.0862ZM20.0744 2.25589C21.4559 2.25589 22.624 3.08791 22.9895 4.22203C22.0479 4.047 21.0729 3.95471 20.0744 3.95471C19.0758 3.95471 18.1009 4.04694 17.1593 4.22203C17.5248 3.08798 18.6929 2.25589 20.0744 2.25589ZM8.25857 22.3357V16.8007C8.25857 10.9613 13.5591 6.2106 20.0744 6.2106C26.5897 6.2106 31.8902 10.9613 31.8902 16.8007V22.3449C31.8918 22.5146 31.9213 24.2978 32.4227 26.493H7.72573C8.22744 24.2957 8.25704 22.5094 8.25857 22.3357ZM20.0744 37.7442C18.1535 37.7442 16.4771 36.5029 15.939 34.8523H24.2096C23.6715 36.5029 21.9954 37.7442 20.0744 37.7442Z" fill="black"/>
<path d="M20.0745 7.79321C14.6599 7.79321 10.2549 11.7413 10.2549 16.5941C10.2549 17.2171 10.8184 17.7221 11.5134 17.7221C12.2084 17.7221 12.7719 17.2171 12.7719 16.5941C12.7719 12.9852 16.0478 10.0491 20.0746 10.0491C20.7696 10.0491 21.3331 9.54407 21.3331 8.92112C21.333 8.29812 20.7695 7.79321 20.0745 7.79321Z" fill="black"/>
</svg>
