<svg width="25" height="25" viewBox="0 0 25 25" fill="none" xmlns="http://www.w3.org/2000/svg">
<path d="M11.0254 24.3197L10.9033 24.1882L2.34863 14.8863C0.849609 13.2569 0 10.97 0 8.57453V8.38587C0 4.36097 2.44141 0.907793 5.82031 0.153125C7.74414 -0.281381 9.71191 0.238883 11.2793 1.53097C11.7188 1.89687 12.1289 2.31994 12.5 2.8059C12.7051 2.53147 12.9248 2.27992 13.1592 2.04551C13.3398 1.86256 13.5254 1.69105 13.7207 1.53097C15.2881 0.238883 17.2559 -0.281381 19.1797 0.147408C22.5586 0.902076 25 4.36097 25 8.38587V8.57453C25 10.97 24.1504 13.2569 22.6514 14.8863L14.0967 24.1882L13.9746 24.3197C13.5742 24.7542 13.0469 25 12.5 25C11.9531 25 11.4258 24.7599 11.0254 24.3197ZM11.6748 5.84172C11.6553 5.82457 11.6406 5.8017 11.626 5.77883L10.7568 4.6354L10.752 4.62968C9.62402 3.14893 7.91992 2.4743 6.25977 2.84592C3.98437 3.35475 2.34375 5.67592 2.34375 8.38587V8.57453C2.34375 10.2039 2.9248 11.7647 3.94531 12.8739L12.5 22.1757L21.0547 12.8739C22.0752 11.7647 22.6562 10.2039 22.6562 8.57453V8.38587C22.6562 5.68164 21.0156 3.35475 18.7451 2.84592C17.085 2.4743 15.376 3.15465 14.2529 4.62968C14.2529 4.62968 14.2529 4.62968 14.248 4.6354C14.2432 4.64111 14.248 4.6354 14.2432 4.64111L13.374 5.78455C13.3594 5.80742 13.3398 5.82457 13.3252 5.84744C13.1055 6.10471 12.8076 6.24764 12.5 6.24764C12.1924 6.24764 11.8945 6.10471 11.6748 5.84744V5.84172Z" fill="#D9D9D9"/>
</svg>
