<svg width="40" height="40" viewBox="0 0 40 40" fill="none" xmlns="http://www.w3.org/2000/svg">
<path d="M7.33167 4.6917C8.96627 4.08655 10.8203 4.47475 12.0751 5.72924C13.8306 7.48475 13.8306 10.3318 12.075 12.0874C10.319 13.8434 7.47237 13.8434 5.71639 12.0874C4.45663 10.8276 4.07088 8.96338 4.68643 7.32436C4.84178 6.91073 4.63241 6.44951 4.21878 6.29416C3.80514 6.13881 3.34393 6.34819 3.18858 6.76182C2.35432 8.98326 2.87733 11.5111 4.58502 13.2188C6.96585 15.5996 10.8256 15.5996 13.2064 13.2188C15.5868 10.8383 15.5868 6.97822 13.2064 4.5978C11.5056 2.89741 8.99163 2.37104 6.77616 3.19123C6.36182 3.34463 6.15026 3.80487 6.30366 4.2192C6.45706 4.63354 6.91733 4.8451 7.33167 4.6917Z" fill="black" fill-opacity="0.4"/>
<path d="M6.30523 4.61281L8.37082 6.67801C8.54 6.8473 8.54 7.12258 8.37078 7.2918L7.28 8.38258C7.11043 8.55215 6.83574 8.55215 6.66617 8.38258L4.61172 6.32852C4.29926 6.01613 3.79273 6.01617 3.48035 6.32863C3.16797 6.64109 3.16801 7.14762 3.48047 7.46L5.53488 9.51398C6.32926 10.3084 7.61699 10.3084 8.41141 9.51395L9.50219 8.42316C10.2962 7.62918 10.2962 6.34125 9.50242 5.54684L7.43652 3.48133C7.12406 3.16895 6.61754 3.16898 6.30516 3.48145C5.99277 3.79391 5.99277 4.30043 6.30523 4.61281ZM32.6729 35.3375C31.0383 35.9427 29.1843 35.5545 27.9295 34.3C26.1739 32.5445 26.1739 29.6974 27.9295 27.9418C29.6855 26.1859 32.5322 26.1859 34.2882 27.9418C35.5479 29.2016 35.9337 31.0659 35.3181 32.7049C35.1628 33.1185 35.3721 33.5797 35.7858 33.7351C36.1994 33.8904 36.6606 33.6811 36.816 33.2674C37.6502 31.046 37.1272 28.5182 35.4195 26.8105C33.0387 24.4296 29.179 24.4296 26.7982 26.8105C24.4177 29.1909 24.4177 33.051 26.7982 35.4314C28.499 37.1318 31.0129 37.6582 33.2284 36.838C33.6427 36.6846 33.8543 36.2244 33.7009 35.81C33.5475 35.3957 33.0873 35.1841 32.6729 35.3375H32.6729Z" fill="black" fill-opacity="0.4"/>
<path d="M33.6998 35.4165L31.6346 33.3513C31.4651 33.1818 31.4651 32.9069 31.6344 32.7377L32.7251 31.6466C32.8946 31.4771 33.1692 31.4771 33.3388 31.6467L35.3933 33.7007C35.7057 34.0131 36.2122 34.0131 36.5246 33.7006C36.837 33.3882 36.837 32.8816 36.5245 32.5693L34.4701 30.5153C33.6757 29.7209 32.388 29.7209 31.5936 30.5153L30.5031 31.6062C29.7087 32.3999 29.7087 33.6882 30.5032 34.4827L32.5684 36.5479C32.8808 36.8603 33.3873 36.8603 33.6997 36.5479C34.0122 36.2355 34.0122 35.7289 33.6997 35.4165L33.6998 35.4165ZM26.3465 28.8355L11.0629 13.5519C10.7505 13.2395 10.244 13.2395 9.93158 13.5519C9.61916 13.8643 9.61916 14.3709 9.93158 14.6833L25.2152 29.9669C25.5276 30.2793 26.0341 30.2793 26.3465 29.9669C26.659 29.6545 26.659 29.1479 26.3465 28.8355ZM13.4285 10.9086L29.0681 26.5482C29.3806 26.8607 29.8871 26.8607 30.1995 26.5482C30.5119 26.2358 30.5119 25.7293 30.1995 25.4169L14.5599 9.77727C14.2475 9.46484 13.741 9.46484 13.4285 9.77727C13.1161 10.0897 13.1161 10.5962 13.4285 10.9086ZM23.4253 15.3039L30.3289 8.40035C30.6413 8.08793 30.6413 7.58141 30.3289 7.26898C30.0165 6.95656 29.5099 6.95656 29.1975 7.26898L22.2939 14.1726C21.9815 14.485 21.9815 14.9915 22.2939 15.3039C22.6063 15.6164 23.1129 15.6164 23.4253 15.3039ZM31.8 9.44793L24.6692 16.5095C24.3553 16.8204 24.3528 17.327 24.6637 17.6409C24.9746 17.9548 25.4812 17.9573 25.7951 17.6464L32.9259 10.5848C33.2398 10.2739 33.2423 9.76738 32.9314 9.45344C32.6205 9.13949 32.114 9.13703 31.8 9.44793Z" fill="black" fill-opacity="0.4"/>
<path d="M36.9419 5.1173C37.0481 5.22344 37.1222 5.3573 37.1559 5.50357C37.1895 5.64985 37.1814 5.80264 37.1323 5.94449L36.0307 9.1293C35.9911 9.24379 35.926 9.34779 35.8403 9.43345C35.7547 9.51912 35.6507 9.58422 35.5362 9.62383L32.351 10.7258C32.2091 10.7749 32.0563 10.7831 31.91 10.7494C31.7637 10.7157 31.6298 10.6416 31.5237 10.5354L29.4409 8.45223C29.3348 8.34609 29.2607 8.21224 29.227 8.06597C29.1933 7.9197 29.2015 7.76692 29.2506 7.62508L30.3522 4.44027C30.3918 4.32579 30.4569 4.22179 30.5425 4.13613C30.6282 4.05047 30.7322 3.98538 30.8466 3.94578L34.0314 2.84379C34.1733 2.7947 34.3261 2.78651 34.4724 2.82018C34.6187 2.85384 34.7526 2.92798 34.8587 3.03414L36.9419 5.11734L36.9419 5.1173ZM34.0815 4.51957L31.7373 5.3307L30.9264 7.675L32.3012 9.05004L34.6457 8.23887L35.4566 5.89465L34.0815 4.51957H34.0815ZM17.6297 25.7918L8.15452 35.267C7.86167 35.5599 7.50991 35.5977 7.38366 35.4716L4.47191 32.5598C4.34601 32.4338 4.38386 32.0823 4.67691 31.789L14.1335 22.3328C14.4459 22.0204 14.4459 21.5139 14.1335 21.2014C13.8212 20.889 13.3146 20.889 13.0022 21.2014L3.54538 30.6578C2.67507 31.5287 2.52964 32.8796 3.34034 33.6909L6.25257 36.6032C7.06421 37.4141 8.41566 37.2686 9.28593 36.3984L18.7611 26.9232C19.0735 26.6107 19.0735 26.1042 18.7611 25.7918C18.4487 25.4794 17.9422 25.4794 17.6298 25.7918L17.6297 25.7918Z" fill="black" fill-opacity="0.4"/>
</svg>
