<svg width="51" height="51" viewBox="0 0 51 51" fill="none" xmlns="http://www.w3.org/2000/svg">
<path fill-rule="evenodd" clip-rule="evenodd" d="M50.3333 25.3335C50.3333 39.1405 39.1403 50.3335 25.3333 50.3335C11.5261 50.3335 0.333252 39.1405 0.333252 25.3335C0.333252 11.5264 11.5261 0.333496 25.3333 0.333496C39.1403 0.333496 50.3333 11.5264 50.3333 25.3335ZM32.8333 17.8335C32.8333 21.9757 29.4755 25.3335 25.3333 25.3335C21.191 25.3335 17.8333 21.9757 17.8333 17.8335C17.8333 13.6914 21.191 10.3335 25.3333 10.3335C29.4755 10.3335 32.8333 13.6914 32.8333 17.8335ZM25.3333 46.5835C29.7933 46.5835 33.9325 45.2095 37.3505 42.8615C38.8603 41.8245 39.5053 39.849 38.6278 38.2415C36.8083 34.9092 33.0588 32.8335 25.333 32.8335C17.6075 32.8335 13.8582 34.909 12.0386 38.2415C11.1609 39.849 11.806 41.8242 13.3157 42.8612C16.7337 45.2092 20.873 46.5835 25.3333 46.5835Z" fill="black"/>
</svg>
