<svg width="26" height="26" viewBox="0 0 26 26" fill="none" xmlns="http://www.w3.org/2000/svg">
<path fill-rule="evenodd" clip-rule="evenodd" d="M25.3333 12.8335C25.3333 19.737 19.7368 25.3335 12.8333 25.3335C5.92969 25.3335 0.333252 19.737 0.333252 12.8335C0.333252 5.92993 5.92969 0.333496 12.8333 0.333496C19.7368 0.333496 25.3333 5.92993 25.3333 12.8335ZM16.5833 9.0835C16.5833 11.1546 14.9044 12.8335 12.8333 12.8335C10.7621 12.8335 9.08325 11.1546 9.08325 9.0835C9.08325 7.01243 10.7621 5.3335 12.8333 5.3335C14.9044 5.3335 16.5833 7.01243 16.5833 9.0835ZM12.8333 23.4585C15.0633 23.4585 17.1329 22.7715 18.8419 21.5975C19.5968 21.079 19.9193 20.0912 19.4805 19.2875C18.5708 17.6214 16.696 16.5835 12.8331 16.5835C8.97036 16.5835 7.09571 17.6212 6.18593 19.2875C5.74706 20.0912 6.06963 21.0789 6.82445 21.5974C8.53348 22.7714 10.6031 23.4585 12.8333 23.4585Z" fill="black"/>
</svg>
