<svg width="35" height="35" viewBox="0 0 35 35" fill="none" xmlns="http://www.w3.org/2000/svg">
<g clip-path="url(#clip0_20_487)">
<path fill-rule="evenodd" clip-rule="evenodd" d="M19.25 15.75H24.5V19.25H19.25V24.5H15.75V19.25H10.5V15.75H15.75V10.5H19.25V15.75ZM17.5 31.5C9.78075 31.5 3.50001 25.2192 3.50001 17.5C3.50001 9.78075 9.78075 3.5 17.5 3.5C25.2192 3.5 31.5 9.78075 31.5 17.5C31.5 25.2192 25.2192 31.5 17.5 31.5ZM17.5 0C7.83475 0 0 7.83475 0 17.5C0 27.1652 7.83475 35 17.5 35C27.1652 35 35 27.1652 35 17.5C35 7.83475 27.1652 0 17.5 0Z" fill="black" fill-opacity="0.4"/>
</g>
<defs>
<clipPath id="clip0_20_487">
<rect width="35" height="35" fill="white"/>
</clipPath>
</defs>
</svg>
