<svg width="30" height="28" viewBox="0 0 30 28" fill="none" xmlns="http://www.w3.org/2000/svg">
<path d="M9.85547 21.5527C8.97656 21.2363 7.99805 21.3711 7.24219 21.9277C6.76172 22.2793 5.93555 22.7949 4.93359 23.2578C5.26172 22.3965 5.51367 21.4238 5.5957 20.3633C5.6543 19.6074 5.40234 18.8574 4.9043 18.2832C3.53906 16.7422 2.8125 14.9375 2.8125 13.0625C2.8125 8.4043 7.69336 3.6875 15 3.6875C22.3066 3.6875 27.1875 8.4043 27.1875 13.0625C27.1875 17.7207 22.3066 22.4375 15 22.4375C13.1484 22.4375 11.4082 22.1152 9.85547 21.5527ZM1.54102 23.832C1.44727 23.9902 1.34766 24.1484 1.24219 24.3066L1.22461 24.3359C1.13086 24.4707 1.03711 24.6055 0.943359 24.7402C0.738281 25.0156 0.515625 25.2852 0.28125 25.5312C0.0117188 25.8008 -0.0644531 26.1992 0.0820312 26.5508C0.228516 26.9023 0.568359 27.1309 0.949219 27.1309C1.24805 27.1309 1.54687 27.1133 1.8457 27.084L1.88672 27.0781C2.14453 27.0488 2.40234 27.0137 2.66016 26.9668C2.70703 26.9609 2.75391 26.9492 2.80078 26.9375C3.84375 26.7324 4.8457 26.3809 5.73633 25.9941C7.07812 25.4082 8.2207 24.7109 8.91797 24.2012C10.7812 24.875 12.8437 25.25 15.0176 25.25C23.3027 25.25 30.0176 19.7949 30.0176 13.0625C30.0176 6.33008 23.2852 0.875 15 0.875C6.71484 0.875 0 6.33008 0 13.0625C0 15.7051 1.03711 18.1484 2.79492 20.1465C2.68359 21.582 2.12695 22.8594 1.54102 23.832ZM8.4375 14.9375C8.93478 14.9375 9.41169 14.74 9.76332 14.3883C10.115 14.0367 10.3125 13.5598 10.3125 13.0625C10.3125 12.5652 10.115 12.0883 9.76332 11.7367C9.41169 11.385 8.93478 11.1875 8.4375 11.1875C7.94022 11.1875 7.4633 11.385 7.11167 11.7367C6.76004 12.0883 6.5625 12.5652 6.5625 13.0625C6.5625 13.5598 6.76004 14.0367 7.11167 14.3883C7.4633 14.74 7.94022 14.9375 8.4375 14.9375ZM16.875 13.0625C16.875 12.5652 16.6775 12.0883 16.3258 11.7367C15.9742 11.385 15.4973 11.1875 15 11.1875C14.5027 11.1875 14.0258 11.385 13.6742 11.7367C13.3225 12.0883 13.125 12.5652 13.125 13.0625C13.125 13.5598 13.3225 14.0367 13.6742 14.3883C14.0258 14.74 14.5027 14.9375 15 14.9375C15.4973 14.9375 15.9742 14.74 16.3258 14.3883C16.6775 14.0367 16.875 13.5598 16.875 13.0625ZM21.5625 14.9375C22.0598 14.9375 22.5367 14.74 22.8883 14.3883C23.24 14.0367 23.4375 13.5598 23.4375 13.0625C23.4375 12.5652 23.24 12.0883 22.8883 11.7367C22.5367 11.385 22.0598 11.1875 21.5625 11.1875C21.0652 11.1875 20.5883 11.385 20.2367 11.7367C19.885 12.0883 19.6875 12.5652 19.6875 13.0625C19.6875 13.5598 19.885 14.0367 20.2367 14.3883C20.5883 14.74 21.0652 14.9375 21.5625 14.9375Z" fill="#D9D9D9"/>
</svg>
