<svg width="34" height="29" viewBox="0 0 34 29" fill="none" xmlns="http://www.w3.org/2000/svg">
<path d="M16.2949 14.8371H5.32209M5.01107 16.1305L3.1982 20.9997C2.20531 23.6665 1.70886 24.9999 2.06513 25.8209C2.37451 26.5341 3.03901 27.0747 3.85896 27.2806C4.80316 27.5174 6.22926 26.9404 9.08146 25.7864L27.3667 18.3878C30.1507 17.2612 31.5427 16.6981 31.9729 15.9157C32.3467 15.2359 32.3467 14.4382 31.9729 13.7585C31.5427 12.9762 30.1507 12.4129 27.3667 11.2864L9.04993 3.87511C6.20631 2.72454 4.78452 2.14925 3.84126 2.38525C3.02209 2.59019 2.35766 3.12938 2.0472 3.84114C1.6897 4.66072 2.18084 5.99124 3.16314 8.65228L5.01459 13.6679C5.18329 14.1249 5.26765 14.3535 5.30094 14.5871C5.3305 14.7946 5.33019 15.0046 5.30006 15.2119C5.26608 15.4455 5.18108 15.6738 5.01107 16.1305Z" stroke="black" stroke-opacity="0.4" stroke-width="3" stroke-linecap="round" stroke-linejoin="round"/>
</svg>
