<svg width="29" height="28" viewBox="0 0 29 28" fill="none" xmlns="http://www.w3.org/2000/svg">
<path d="M12.0013 16.3935L26.5949 2.38887M12.4161 17.0233L15.7252 23.3769C16.5249 24.9122 16.9247 25.68 17.4284 25.8858C17.8656 26.0645 18.3653 26.032 18.7736 25.7987C19.244 25.5299 19.5328 24.7175 20.1107 23.093L26.363 5.51488C26.8666 4.09941 27.1182 3.39166 26.946 2.92347C26.796 2.51618 26.4623 2.19579 26.0381 2.05189C25.5503 1.88648 24.8132 2.12815 23.3386 2.61148L5.02804 8.61379C3.33584 9.1685 2.48973 9.44586 2.20964 9.89743C1.96657 10.2893 1.93289 10.769 2.11898 11.1886C2.33342 11.6722 3.1331 12.0561 4.73247 12.8237L11.3507 16.0006C11.6143 16.1271 11.7461 16.1902 11.8601 16.2747C11.9615 16.3498 12.0524 16.437 12.1304 16.5342C12.2185 16.6438 12.2844 16.7703 12.4161 17.0233Z" stroke="black" stroke-width="3" stroke-linecap="round" stroke-linejoin="round"/>
</svg>
