<svg width="40" height="40" viewBox="0 0 40 40" fill="none" xmlns="http://www.w3.org/2000/svg">
<path d="M31.111 32.4117C31.111 26.7974 24.6295 25.5556 19.9999 25.5556C15.3703 25.5556 8.88881 26.7974 8.88881 32.4117M36.6666 20C36.6666 29.2048 29.2047 36.6667 19.9999 36.6667C10.7952 36.6667 3.33325 29.2048 3.33325 20C3.33325 10.7953 10.7952 3.33333 19.9999 3.33333C29.2047 3.33333 36.6666 10.7953 36.6666 20ZM25.5555 14.4444C25.5555 17.5128 23.0683 20 19.9999 20C16.9316 20 14.4444 17.5128 14.4444 14.4444C14.4444 11.3762 16.9316 8.88889 19.9999 8.88889C23.0683 8.88889 25.5555 11.3762 25.5555 14.4444Z" stroke="black" stroke-width="2" stroke-linecap="round" stroke-linejoin="round"/>
</svg>
